<svg preserveAspectRatio="none" width="100%" height="100%" overflow="visible" style="display: block;" viewBox="0 0 85 85" fill="none" xmlns="http://www.w3.org/2000/svg">
<g id="icons/Peoples/user-to-user-transmission">
<path id="Vector" d="M24.7917 31.875C31.6377 31.875 37.1875 26.3252 37.1875 19.4792C37.1875 12.6331 31.6377 7.08333 24.7917 7.08333C17.9456 7.08333 12.3958 12.6331 12.3958 19.4792C12.3958 26.3252 17.9456 31.875 24.7917 31.875Z" stroke="var(--stroke-0, #A3F4BA)" stroke-width="2" stroke-linejoin="round"/>
<path id="Vector_2" d="M60.2083 31.875C67.0544 31.875 72.6042 26.3252 72.6042 19.4792C72.6042 12.6331 67.0544 7.08333 60.2083 7.08333C53.3623 7.08333 47.8125 12.6331 47.8125 19.4792C47.8125 26.3252 53.3623 31.875 60.2083 31.875Z" stroke="var(--stroke-0, #A3F4BA)" stroke-width="2" stroke-linejoin="round"/>
<path id="Vector_3" d="M7.08333 77.9167C7.08333 76.3426 7.08333 71.0301 7.08333 61.9792C7.08333 52.1992 13.7598 44.2708 21.9957 44.2708C25.9723 44.2708 28.9547 44.2708 30.943 44.2708C38.1769 44.2708 42.5002 51.4018 42.5002 51.4018" stroke="var(--stroke-0, #A3F4BA)" stroke-width="2" stroke-linecap="round" stroke-linejoin="round"/>
<path id="Vector_4" d="M77.9167 77.9167C77.9167 76.3426 77.9167 71.0301 77.9167 61.9792C77.9167 52.1992 71.1608 44.2708 62.827 44.2708C58.803 44.2708 55.7851 44.2708 53.7731 44.2708C46.7585 44.2708 42.4862 51.4018 42.5 51.4018" stroke="var(--stroke-0, #A3F4BA)" stroke-width="2" stroke-linecap="round" stroke-linejoin="round"/>
<path id="Vector_5" d="M19.4792 70.8333H67.2917" stroke="var(--stroke-0, #A3F4BA)" stroke-width="2" stroke-linecap="round" stroke-linejoin="round"/>
<path id="Vector_6" d="M60.7306 64.2065L62.9257 66.4151L67.3158 70.8321L62.9257 75.3681L60.7306 77.6362" stroke="var(--stroke-0, #A3F4BA)" stroke-width="2" stroke-linecap="round" stroke-linejoin="round"/>
<path id="Vector_7" d="M25.3732 64.1616L23.1433 66.3815L18.6837 70.8212L23.1433 75.3345L25.3732 77.5912" stroke="var(--stroke-0, #A3F4BA)" stroke-width="2" stroke-linecap="round" stroke-linejoin="round"/>
</g>
</svg>
