<svg preserveAspectRatio="none" width="100%" height="100%" overflow="visible" style="display: block;" viewBox="0 0 31.7266 30" fill="none" xmlns="http://www.w3.org/2000/svg">
<g id="icons/Office/folder">
<path id="Vector" d="M4.6268 3.75C4.6268 3.05964 5.21865 2.5 5.94874 2.5H25.7779C26.508 2.5 27.0998 3.05964 27.0998 3.75V26.25C27.0998 26.9404 26.508 27.5 25.7779 27.5H5.94874C5.21865 27.5 4.6268 26.9404 4.6268 26.25V3.75Z" stroke="var(--stroke-0, white)" stroke-width="2" stroke-linecap="round" stroke-linejoin="round"/>
<path id="Vector_2" d="M10.5755 18.125H13.2194" stroke="var(--stroke-0, white)" stroke-width="2" stroke-linecap="round" stroke-linejoin="round"/>
<path id="Vector_3" d="M10.5755 21.875H17.1853" stroke="var(--stroke-0, white)" stroke-width="2" stroke-linecap="round" stroke-linejoin="round"/>
<path id="Vector_4" d="M5.28777 3.125C5.28777 3.125 7.77613 11.25 15.8633 11.25C23.9505 11.25 26.4388 3.125 26.4388 3.125" stroke="var(--stroke-0, white)" stroke-width="2" stroke-linecap="round" stroke-linejoin="round"/>
<path id="Vector_5" d="M15.8633 13.75C17.3235 13.75 18.5072 12.6307 18.5072 11.25C18.5072 9.86929 17.3235 8.75 15.8633 8.75C14.4031 8.75 13.2194 9.86929 13.2194 11.25C13.2194 12.6307 14.4031 13.75 15.8633 13.75Z" fill="var(--fill-0, white)" stroke="var(--stroke-0, white)" stroke-width="2" stroke-linecap="round" stroke-linejoin="round"/>
<path id="Vector_6" d="M9.91457 2.5H5.94874C5.21865 2.5 4.6268 3.05964 4.6268 3.75V7.5" stroke="var(--stroke-0, white)" stroke-width="2" stroke-linecap="round" stroke-linejoin="round"/>
<path id="Vector_7" d="M21.812 2.5H25.7779C26.508 2.5 27.0998 3.05964 27.0998 3.75V7.5" stroke="var(--stroke-0, white)" stroke-width="2" stroke-linecap="round" stroke-linejoin="round"/>
</g>
</svg>
