<svg preserveAspectRatio="none" width="100%" height="100%" overflow="visible" style="display: block;" viewBox="0 0 50 50" fill="none" xmlns="http://www.w3.org/2000/svg">
<g id="icons/Arrows/up-c">
<path id="Vector" fill-rule="evenodd" clip-rule="evenodd" d="M25 45.8333C36.5059 45.8333 45.8333 36.5059 45.8333 25C45.8333 13.4941 36.5059 4.16667 25 4.16667C13.4941 4.16667 4.16667 13.4941 4.16667 25C4.16667 36.5059 13.4941 45.8333 25 45.8333Z" stroke="var(--stroke-0, #A3F4BA)" stroke-width="2"/>
<path id="Vector_2" d="M25 45.8333C36.5059 45.8333 45.8333 36.5059 45.8333 25C45.8333 13.4941 36.5059 4.16667 25 4.16667C13.4941 4.16667 4.16667 13.4941 4.16667 25C4.16667 36.5059 13.4941 45.8333 25 45.8333Z" stroke="var(--stroke-0, #A3F4BA)" stroke-width="2" stroke-linejoin="round"/>
<path id="Vector_3" d="M32 28L25 21L18 28" stroke="var(--stroke-0, #A3F4BA)" stroke-width="2" stroke-linecap="round" stroke-linejoin="round"/>
</g>
</svg>
