<svg preserveAspectRatio="none" width="100%" height="100%" overflow="visible" style="display: block;" viewBox="0 0 85 85" fill="none" xmlns="http://www.w3.org/2000/svg">
<g id="icons/Office/mail-review">
<path id="Vector" d="M77.9167 42.5V72.2822C77.9167 74.4161 76.3311 76.1458 74.375 76.1458H10.625C8.66899 76.1458 7.08333 74.4161 7.08333 72.2822V42.5L42.5 65.5208L77.9167 42.5Z" stroke="var(--stroke-0, #A3F4BA)" stroke-width="2" stroke-linejoin="round"/>
<path id="Vector_2" d="M7.08333 42.1175L24.7917 29.9131M77.9167 42.1175L60.2083 29.9131" stroke="var(--stroke-0, #A3F4BA)" stroke-width="2" stroke-linecap="round" stroke-linejoin="round"/>
<path id="Vector_3" d="M60.2083 8.85417H24.7917V52.0884C24.7917 53.2872 25.398 54.4046 26.4031 55.0579L40.5698 64.2662C41.7435 65.0291 43.2565 65.0291 44.4302 64.2662L58.5969 55.0579C59.602 54.4046 60.2083 53.2872 60.2083 52.0884V8.85417Z" stroke="var(--stroke-0, #A3F4BA)" stroke-width="2" stroke-linejoin="round"/>
<path id="Vector_4" d="M35.4167 23.0208H42.5" stroke="var(--stroke-0, #A3F4BA)" stroke-width="2" stroke-linecap="round" stroke-linejoin="round"/>
<path id="Vector_5" d="M35.4167 33.6458H49.5833" stroke="var(--stroke-0, #A3F4BA)" stroke-width="2" stroke-linecap="round" stroke-linejoin="round"/>
</g>
</svg>
